<svg width="32" height="35" viewBox="0 0 32 35" fill="none" xmlns="http://www.w3.org/2000/svg">
<path d="M2.5 8.75L7 2.91667H25L29.5 8.75M2.5 8.75V29.1667C2.5 29.9402 2.81607 30.6821 3.37868 31.2291C3.94129 31.776 4.70435 32.0833 5.5 32.0833H26.5C27.2956 32.0833 28.0587 31.776 28.6213 31.2291C29.1839 30.6821 29.5 29.9402 29.5 29.1667V8.75M2.5 8.75H29.5M22 14.5833C22 16.1304 21.3679 17.6142 20.2426 18.7081C19.1174 19.8021 17.5913 20.4167 16 20.4167C14.4087 20.4167 12.8826 19.8021 11.7574 18.7081C10.6321 17.6142 10 16.1304 10 14.5833" stroke="#1E1E1E" style="stroke:#1E1E1E;stroke:color(display-p3 0.1176 0.1176 0.1176);stroke-opacity:1;" stroke-width="4" stroke-linecap="round" stroke-linejoin="round"/>
</svg>
