<svg width="115" height="7" viewBox="0 0 115 7" fill="none" xmlns="http://www.w3.org/2000/svg">
<path d="M0.526362 6.77979L1.65966 0.366699C1.67041 0.298665 1.72591 0.22168 1.82617 0.135742C1.92643 0.046224 2.01057 0.00146484 2.07861 0.00146484H7.25097C7.43001 0.00146484 7.63232 0.135742 7.85791 0.404297C8.08707 0.672852 8.18554 0.894857 8.15332 1.07031L7.71289 3.58936C7.68424 3.74691 7.50878 3.96354 7.18652 4.23926C6.86425 4.51139 6.6136 4.64746 6.43457 4.64746H6.0371L7.30468 6.64551C7.32617 6.67773 7.33691 6.72607 7.33691 6.79053C7.33691 6.84424 7.31722 6.89258 7.27783 6.93555C7.24202 6.97852 7.19189 7 7.12744 7H6.25732L4.81787 4.64746H1.96044L1.58447 6.77979C1.57373 6.8335 1.53971 6.88363 1.48242 6.93018C1.42871 6.97673 1.375 7 1.32128 7H0.703609C0.649898 7 0.603348 6.97673 0.56396 6.93018C0.528153 6.88363 0.51562 6.8335 0.526362 6.77979ZM2.12158 3.70215H6.6333L7.11669 0.952148H2.60498L2.12158 3.70215Z" fill="black" style="fill:black;fill-opacity:1;"/>
<path d="M9.05566 6.63477L10.1567 0.366699C10.1675 0.298665 10.2248 0.22168 10.3286 0.135742C10.4324 0.046224 10.5184 0.00146484 10.5864 0.00146484H16.21C16.2637 0.00146484 16.3084 0.0247396 16.3442 0.0712891C16.38 0.117839 16.3926 0.167969 16.3818 0.22168L16.3066 0.731934C16.2959 0.785645 16.2619 0.835775 16.2046 0.882324C16.1509 0.928874 16.0972 0.952148 16.0435 0.952148H11.1128L10.7529 3.02002H15.0659C15.1196 3.02002 15.1644 3.04329 15.2002 3.08984C15.2396 3.13639 15.2557 3.18652 15.2485 3.24023L15.1626 3.73438C15.1519 3.79167 15.1196 3.84359 15.0659 3.89014C15.0158 3.93311 14.9603 3.95459 14.8994 3.95459H10.5864L10.2104 6.05469H15.1519C15.2056 6.05469 15.2521 6.07796 15.2915 6.12451C15.3309 6.17106 15.347 6.22119 15.3398 6.2749L15.2485 6.77979C15.2378 6.8335 15.2038 6.88363 15.1465 6.93018C15.0928 6.97673 15.0391 7 14.9853 7H9.35644C9.28841 7 9.21858 6.95703 9.14697 6.87109C9.07535 6.78516 9.04492 6.70638 9.05566 6.63477Z" fill="black" style="fill:black;fill-opacity:1;"/>
<path d="M16.8545 6.62402L17.9556 0.366699C17.9663 0.298665 18.0236 0.22168 18.1274 0.135742C18.2313 0.046224 18.3172 0.00146484 18.3853 0.00146484H23.5093C23.6883 0.00146484 23.8906 0.135742 24.1162 0.404297C24.3454 0.672852 24.4438 0.894857 24.4116 1.07031L24.1162 2.7998C24.0983 2.8929 24.0177 3.00928 23.8745 3.14893C23.7349 3.28499 23.5845 3.39242 23.4233 3.47119C23.5773 3.52132 23.717 3.62516 23.8423 3.78271C23.9676 3.93669 24.0195 4.07096 23.998 4.18555L23.6865 5.93115C23.6615 6.10661 23.4878 6.32861 23.1655 6.59717C22.8433 6.86572 22.5926 7 22.4136 7H17.1553C17.0872 7 17.0174 6.95524 16.9458 6.86572C16.8742 6.77262 16.8437 6.69206 16.8545 6.62402ZM18.0093 6.05469H22.6123L22.9829 3.93311H18.3853L18.0093 6.05469ZM18.541 3.03076H23.0151L23.3804 0.952148H18.9116L18.541 3.03076Z" fill="black" style="fill:black;fill-opacity:1;"/>
<path d="M25.4214 5.93115L26.2754 1.07031C26.3076 0.894857 26.4831 0.672852 26.8018 0.404297C27.124 0.135742 27.3747 0.00146484 27.5537 0.00146484H32.1514C32.3304 0.00146484 32.5327 0.135742 32.7583 0.404297C32.9875 0.672852 33.0859 0.894857 33.0537 1.07031L32.1943 5.93115C32.1693 6.10661 31.9956 6.32861 31.6733 6.59717C31.3511 6.86572 31.1004 7 30.9214 7H26.3237C26.1447 7 25.9406 6.86572 25.7114 6.59717C25.4858 6.32861 25.3892 6.10661 25.4214 5.93115ZM26.4526 6.05469H31.1309L32.0171 0.952148H27.355L26.4526 6.05469Z" fill="black" style="fill:black;fill-opacity:1;"/>
<path d="M34.0796 5.93115L35.0894 0.22168C35.0929 0.167969 35.1216 0.117839 35.1753 0.0712891C35.2326 0.0247396 35.2881 0.00146484 35.3418 0.00146484H35.9595C36.0132 0.00146484 36.0597 0.0247396 36.0991 0.0712891C36.1385 0.117839 36.1546 0.167969 36.1475 0.22168L35.1108 6.05469H39.7568L40.7773 0.22168C40.7881 0.167969 40.8185 0.117839 40.8686 0.0712891C40.9224 0.0247396 40.9761 0.00146484 41.0298 0.00146484H41.6475C41.7083 0.00146484 41.7567 0.0247396 41.7925 0.0712891C41.8319 0.117839 41.8462 0.167969 41.8354 0.22168L40.8203 5.93115C40.7952 6.10661 40.6216 6.32861 40.2993 6.59717C39.977 6.86572 39.7264 7 39.5474 7H34.9819C34.8673 7 34.7349 6.93734 34.5845 6.81201C34.4341 6.68311 34.307 6.53271 34.2031 6.36084C34.1029 6.18896 34.0617 6.04574 34.0796 5.93115Z" fill="black" style="fill:black;fill-opacity:1;"/>
<path d="M42.6572 6.62402L43.7798 0.22168C43.7905 0.167969 43.8228 0.117839 43.8765 0.0712891C43.9338 0.0247396 43.9893 0.00146484 44.043 0.00146484H44.6606C44.7144 0.00146484 44.7591 0.0247396 44.7949 0.0712891C44.8343 0.117839 44.8486 0.167969 44.8379 0.22168L43.812 6.05469H48.0283C48.082 6.05469 48.1268 6.07796 48.1626 6.12451C48.202 6.17106 48.2163 6.22119 48.2056 6.2749L48.1143 6.77979C48.1035 6.8335 48.0713 6.88363 48.0176 6.93018C47.9674 6.97673 47.9155 7 47.8618 7H42.9687C42.9007 7 42.8291 6.95524 42.7539 6.86572C42.6787 6.77262 42.6465 6.69206 42.6572 6.62402Z" fill="black" style="fill:black;fill-opacity:1;"/>
<path d="M52.626 6.77979L52.7119 6.2749C52.7227 6.22119 52.7567 6.17106 52.814 6.12451C52.8713 6.07796 52.9268 6.05469 52.9805 6.05469H58.2119L58.5879 3.95459H54.1084C53.9294 3.95459 53.727 3.81852 53.5015 3.54639C53.2759 3.27425 53.1792 3.05046 53.2114 2.875L53.5283 1.07031C53.5462 0.955729 53.6357 0.8125 53.7969 0.640625C53.958 0.46875 54.137 0.32015 54.334 0.194824C54.5345 0.065918 54.6921 0.00146484 54.8066 0.00146484H59.9629C60.0166 0.00146484 60.0631 0.0247396 60.1025 0.0712891C60.1455 0.117839 60.1616 0.167969 60.1509 0.22168L60.0596 0.731934C60.0488 0.785645 60.0148 0.835775 59.9575 0.882324C59.9038 0.928874 59.8501 0.952148 59.7964 0.952148H54.5972L54.2427 3.00928H58.7222C58.8367 3.00928 58.9692 3.07373 59.1196 3.20264C59.27 3.33154 59.3936 3.48193 59.4902 3.65381C59.5905 3.82568 59.6299 3.96891 59.6084 4.0835L59.2915 5.93115C59.2593 6.10661 59.0838 6.32861 58.7651 6.59717C58.4464 6.86572 58.1976 7 58.0186 7H52.814C52.7531 7 52.703 6.97673 52.6636 6.93018C52.6278 6.88363 52.6152 6.8335 52.626 6.77979Z" fill="black" style="fill:black;fill-opacity:1;"/>
<path d="M62.9976 6.77979L64.0181 0.952148H61.2144C61.1606 0.952148 61.1141 0.928874 61.0747 0.882324C61.0353 0.835775 61.0192 0.785645 61.0264 0.731934L61.1123 0.22168C61.123 0.167969 61.1571 0.117839 61.2144 0.0712891C61.2716 0.0247396 61.3271 0.00146484 61.3809 0.00146484H68.0571C68.1216 0.00146484 68.1699 0.0247396 68.2021 0.0712891C68.2379 0.114258 68.2505 0.164388 68.2397 0.22168L68.1431 0.731934C68.1323 0.785645 68.1001 0.835775 68.0464 0.882324C67.9962 0.928874 67.9443 0.952148 67.8906 0.952148H65.0762L64.0503 6.79053C64.0395 6.84066 64.0073 6.889 63.9536 6.93555C63.9035 6.97852 63.8516 7 63.7978 7H63.1694C63.1157 7 63.071 6.97673 63.0352 6.93018C62.9993 6.88363 62.9868 6.8335 62.9976 6.77979Z" fill="black" style="fill:black;fill-opacity:1;"/>
<path d="M68.4009 5.93115L69.2549 1.07031C69.2871 0.894857 69.4626 0.672852 69.7812 0.404297C70.1035 0.135742 70.3542 0.00146484 70.5332 0.00146484H75.1309C75.3099 0.00146484 75.5122 0.135742 75.7378 0.404297C75.967 0.672852 76.0654 0.894857 76.0332 1.07031L75.1738 5.93115C75.1488 6.10661 74.9751 6.32861 74.6528 6.59717C74.3306 6.86572 74.0799 7 73.9009 7H69.3032C69.1242 7 68.9201 6.86572 68.6909 6.59717C68.4653 6.32861 68.3686 6.10661 68.4009 5.93115ZM69.4321 6.05469H74.1103L74.9966 0.952148H70.3345L69.4321 6.05469Z" fill="black" style="fill:black;fill-opacity:1;"/>
<path d="M76.9248 6.77979L78.0581 0.366699C78.0688 0.298665 78.1243 0.22168 78.2246 0.135742C78.3249 0.046224 78.409 0.00146484 78.477 0.00146484H83.6494C83.8284 0.00146484 84.0308 0.135742 84.2563 0.404297C84.4855 0.672852 84.584 0.894857 84.5518 1.07031L84.1113 3.58936C84.0827 3.74691 83.9072 3.96354 83.585 4.23926C83.2627 4.51139 83.012 4.64746 82.833 4.64746H82.4355L83.7031 6.64551C83.7246 6.67773 83.7353 6.72607 83.7353 6.79053C83.7353 6.84424 83.7156 6.89258 83.6763 6.93555C83.6405 6.97852 83.5903 7 83.5259 7H82.6558L81.2163 4.64746H78.3589L77.9829 6.77979C77.9722 6.8335 77.9381 6.88363 77.8809 6.93018C77.8271 6.97673 77.7734 7 77.7197 7H77.102C77.0483 7 77.0018 6.97673 76.9624 6.93018C76.9266 6.88363 76.9141 6.8335 76.9248 6.77979ZM78.52 3.70215H83.0317L83.5151 0.952148H79.0034L78.52 3.70215Z" fill="black" style="fill:black;fill-opacity:1;"/>
<path d="M85.4541 6.63477L86.5552 0.366699C86.5659 0.298665 86.6232 0.22168 86.727 0.135742C86.8309 0.046224 86.9168 0.00146484 86.9849 0.00146484H92.6084C92.6621 0.00146484 92.7069 0.0247396 92.7427 0.0712891C92.7785 0.117839 92.791 0.167969 92.7803 0.22168L92.7051 0.731934C92.6943 0.785645 92.6603 0.835775 92.603 0.882324C92.5493 0.928874 92.4956 0.952148 92.4419 0.952148H87.5112L87.1514 3.02002H91.4643C91.5181 3.02002 91.5628 3.04329 91.5986 3.08984C91.638 3.13639 91.6541 3.18652 91.647 3.24023L91.561 3.73438C91.5503 3.79167 91.5181 3.84359 91.4643 3.89014C91.4142 3.93311 91.3587 3.95459 91.2978 3.95459H86.9849L86.6089 6.05469H91.5503C91.604 6.05469 91.6505 6.07796 91.6899 6.12451C91.7293 6.17106 91.7454 6.22119 91.7383 6.2749L91.647 6.77979C91.6362 6.8335 91.6022 6.88363 91.5449 6.93018C91.4912 6.97673 91.4375 7 91.3838 7H85.7549C85.6868 7 85.617 6.95703 85.5454 6.87109C85.4738 6.78516 85.4434 6.70638 85.4541 6.63477Z" fill="black" style="fill:black;fill-opacity:1;"/>
<path d="M102.953 6.2749L102.867 6.77979C102.856 6.8335 102.824 6.88363 102.771 6.93018C102.72 6.97673 102.668 7 102.615 7H96.728C96.66 7 96.5866 6.95524 96.5078 6.86572C96.4326 6.77262 96.4004 6.69206 96.4111 6.62402L96.8623 4.0835C96.8945 3.90804 97.07 3.68783 97.3887 3.42285C97.7073 3.1543 97.9562 3.02002 98.1352 3.02002H102.513L102.878 0.952148H97.7754C97.7217 0.952148 97.6751 0.928874 97.6357 0.882324C97.5999 0.835775 97.5874 0.785645 97.5981 0.731934L97.6841 0.22168C97.6948 0.164388 97.7253 0.114258 97.7754 0.0712891C97.8291 0.0247396 97.8864 0.00146484 97.9473 0.00146484H103.007C103.186 0.00146484 103.388 0.135742 103.614 0.404297C103.843 0.672852 103.941 0.894857 103.909 1.07031L103.592 2.89648C103.56 3.07194 103.383 3.29395 103.061 3.5625C102.742 3.83105 102.493 3.96533 102.314 3.96533H97.9365L97.5767 6.05469H102.776C102.83 6.05469 102.874 6.07796 102.91 6.12451C102.95 6.17106 102.964 6.22119 102.953 6.2749Z" fill="black" style="fill:black;fill-opacity:1;"/>
<path d="M104.113 6.77979L104.231 6.06543C104.242 6.01172 104.274 5.96159 104.328 5.91504C104.382 5.86849 104.439 5.84521 104.5 5.84521H105.236C105.29 5.84521 105.336 5.86849 105.375 5.91504C105.415 5.96159 105.431 6.01172 105.424 6.06543L105.29 6.77979C105.279 6.8335 105.247 6.88363 105.193 6.93018C105.143 6.97673 105.091 7 105.037 7H104.291C104.237 7 104.19 6.97852 104.151 6.93555C104.115 6.89258 104.103 6.84066 104.113 6.77979Z" fill="black" style="fill:black;fill-opacity:1;"/>
<path d="M106.702 5.92041L107.562 1.07031C107.594 0.894857 107.769 0.672852 108.088 0.404297C108.41 0.135742 108.661 0.00146484 108.84 0.00146484H113.282C113.396 0.00146484 113.529 0.065918 113.679 0.194824C113.83 0.32015 113.955 0.46875 114.055 0.640625C114.159 0.8125 114.202 0.955729 114.184 1.07031L113.325 5.93115C113.292 6.10661 113.117 6.32861 112.798 6.59717C112.48 6.86572 112.231 7 112.052 7H107.626C107.447 7 107.241 6.86393 107.008 6.5918C106.779 6.31966 106.677 6.09587 106.702 5.92041ZM107.75 6.05469H112.245L113.137 0.952148H108.641L107.75 6.05469Z" fill="black" style="fill:black;fill-opacity:1;"/>
</svg>
